<?xml version="1.0" standalone="no"?>
<!DOCTYPE svg PUBLIC "-//W3C//DTD SVG 20010904//EN"
 "http://www.w3.org/TR/2001/REC-SVG-20010904/DTD/svg10.dtd">
<svg version="1.0" xmlns="http://www.w3.org/2000/svg"
 width="426.000000pt" height="425.000000pt" viewBox="0 0 426.000000 425.000000"
 preserveAspectRatio="xMidYMid meet">

<g transform="translate(0.000000,425.000000) scale(0.100000,-0.100000)"
fill="#000000" stroke="none">
<path d="M305 3676 l-300 -173 -3 -1375 -2 -1376 52 -30 c29 -16 163 -93 298
-171 l245 -141 6 312 c4 172 7 765 8 1317 1 861 3 1002 15 998 8 -3 167 -93
353 -200 186 -107 489 -281 673 -387 184 -106 341 -193 348 -193 6 0 12 -3 12
-7 0 -3 9 -6 19 -7 15 -1 54 60 183 282 120 210 167 283 178 279 46 -16 -58
46 -840 498 -405 235 -461 267 -685 396 -110 63 -214 123 -230 133 l-31 18
-299 -173z"/>
<path d="M1848 1918 l-547 -313 -1 -399 c0 -339 2 -397 14 -393 34 13 1396
804 1411 820 7 7 6 8 -2 3 -7 -4 -13 -2 -13 4 0 6 -20 47 -45 90 -25 44 -57
102 -72 128 -14 26 -64 115 -111 197 -46 83 -85 156 -85 163 0 6 -1 12 -1 12
-1 0 -247 -141 -548 -312z"/>
</g>
</svg>
