<?xml version="1.0" standalone="no"?>
<!DOCTYPE svg PUBLIC "-//W3C//DTD SVG 20010904//EN"
 "http://www.w3.org/TR/2001/REC-SVG-20010904/DTD/svg10.dtd">
<svg version="1.0" xmlns="http://www.w3.org/2000/svg"
 width="2412.000000pt" height="515.000000pt" viewBox="0 0 2412.000000 515.000000"
 preserveAspectRatio="xMidYMid meet">

<g transform="translate(0.000000,515.000000) scale(0.100000,-0.100000)"
fill="#000000" stroke="none">
<path d="M20150 4557 l-335 -194 0 -1304 0 -1303 334 -193 c184 -106 338 -193
343 -193 4 0 8 583 8 1295 0 712 2 1295 5 1295 3 0 174 -97 382 -215 302 -173
379 -213 388 -203 33 36 326 561 318 569 -19 19 -1087 639 -1100 639 -5 0
-159 -87 -343 -193z"/>
<path d="M21905 3583 c-82 -142 -157 -271 -166 -288 l-18 -30 159 -92 158 -91
161 277 c88 153 163 284 166 293 5 12 -31 36 -145 102 -83 47 -154 86 -159 86
-4 0 -74 -116 -156 -257z"/>
<path d="M575 3763 c-178 -28 -328 -96 -423 -191 -108 -108 -152 -214 -152
-367 0 -147 45 -266 138 -366 101 -110 214 -172 492 -274 258 -95 340 -149
356 -232 28 -149 -154 -234 -416 -193 -128 21 -292 89 -440 184 -36 23 -71 45
-78 50 -9 6 -12 -38 -12 -207 l0 -214 107 -50 c205 -96 370 -133 588 -133 208
1 382 45 510 131 166 112 245 261 245 464 0 151 -42 263 -137 365 -99 107
-201 164 -502 279 -101 39 -205 83 -233 98 -176 96 -144 255 59 293 148 28
343 -6 573 -100 69 -28 133 -54 143 -57 16 -5 17 8 17 185 l0 190 -49 21 c-78
33 -225 81 -319 102 -64 15 -133 21 -262 24 -96 2 -188 1 -205 -2z"/>
<path d="M13442 3749 c-164 -81 -174 -307 -18 -404 122 -75 294 -11 335 124
26 89 4 177 -60 238 -69 65 -175 82 -257 42z"/>
<path d="M5800 2770 l0 -980 243 2 242 3 3 398 2 397 425 0 425 0 0 185 0 185
-425 0 -425 0 0 215 0 215 425 0 425 0 0 180 0 180 -670 0 -670 0 0 -980z"/>
<path d="M22170 3111 c-36 -21 -273 -156 -527 -301 l-463 -264 0 -393 0 -394
23 12 c22 12 963 557 1225 710 78 45 142 87 142 92 0 18 -315 576 -325 576 -5
-1 -39 -18 -75 -38z"/>
<path d="M2125 3125 c-106 -20 -214 -57 -305 -103 l-75 -38 -3 -167 c-1 -92 0
-167 3 -167 3 0 36 23 73 52 184 141 426 197 553 127 52 -29 78 -70 85 -136
l6 -48 -224 -72 c-264 -86 -386 -143 -458 -213 -70 -68 -93 -123 -98 -237 -4
-81 -2 -97 20 -145 33 -71 99 -134 178 -172 61 -29 72 -31 180 -31 94 0 127 5
185 24 76 26 155 63 197 92 34 25 35 25 52 -14 18 -43 67 -84 119 -98 95 -26
263 4 420 74 l67 30 0 118 0 119 -63 -35 c-75 -41 -119 -45 -141 -13 -14 19
-16 71 -16 359 0 186 -5 360 -10 390 -29 150 -126 244 -305 294 -86 24 -335
29 -440 10z m335 -852 l0 -158 -49 -33 c-126 -87 -250 -82 -294 11 -44 92 3
185 126 249 43 22 196 86 210 87 4 1 7 -70 7 -156z"/>
<path d="M4035 3133 c-98 -21 -221 -90 -290 -163 l-30 -31 -5 88 -5 88 -207 3
-208 2 0 -665 0 -665 208 2 207 3 5 431 5 431 44 57 c86 111 158 152 253 143
78 -7 121 -36 156 -107 l27 -55 3 -453 3 -452 207 2 207 3 0 475 c0 433 -2
480 -18 535 -28 88 -53 133 -113 195 -87 92 -213 141 -354 139 -41 -1 -84 -3
-95 -6z"/>
<path d="M8182 3126 c-100 -33 -205 -145 -289 -308 l-43 -82 0 192 0 192 -207
-2 -208 -3 0 -660 0 -660 208 -3 207 -2 0 292 0 293 51 105 c95 199 168 265
291 265 59 0 76 -5 155 -45 l90 -46 56 181 57 180 -33 28 c-17 15 -60 42 -94
59 -75 36 -172 46 -241 24z"/>
<path d="M9090 3128 c-85 -12 -261 -71 -335 -112 l-60 -33 -3 -166 c-1 -92 0
-167 3 -167 3 0 34 22 68 49 225 177 532 214 618 75 11 -18 22 -54 25 -81 l6
-48 -224 -72 c-365 -119 -486 -193 -538 -328 -33 -89 -32 -192 2 -266 34 -75
95 -134 176 -172 63 -30 73 -32 182 -31 135 0 228 26 344 94 37 22 70 40 72
40 2 0 10 -15 18 -33 18 -43 67 -84 119 -98 98 -27 320 16 442 84 l40 23 3
117 3 117 -64 -35 c-71 -39 -116 -44 -140 -17 -15 17 -17 56 -17 348 0 181 -5
358 -10 393 -28 172 -152 279 -364 316 -96 16 -263 18 -366 3z m320 -852 l0
-155 -37 -30 c-48 -39 -131 -71 -186 -71 -80 0 -137 58 -137 140 0 96 65 154
265 236 44 18 83 33 88 34 4 0 7 -69 7 -154z"/>
<path d="M10963 3126 c-81 -20 -155 -61 -226 -127 l-66 -60 -3 88 -3 88 -207
3 -208 2 0 -665 0 -665 208 2 207 3 3 429 2 429 27 36 c83 113 169 171 253
171 87 -1 165 -56 192 -138 8 -26 13 -166 15 -485 l4 -447 207 2 207 3 0 465
c0 415 -2 472 -18 530 -25 92 -52 143 -108 204 -109 119 -311 174 -486 132z"/>
<path d="M12465 3134 c-11 -2 -45 -9 -75 -15 -265 -53 -482 -263 -536 -519
-35 -164 -2 -372 79 -508 45 -75 158 -180 242 -224 218 -114 503 -129 782 -40
l88 28 3 150 3 151 -118 -41 c-114 -39 -122 -40 -248 -41 -120 0 -134 2 -185
26 -82 39 -135 90 -172 167 -32 64 -33 71 -33 187 0 112 2 124 27 172 40 75
79 116 145 150 138 73 329 70 501 -8 l62 -28 0 158 0 158 -72 21 c-145 43
-205 53 -338 57 -74 2 -144 2 -155 -1z"/>
<path d="M14431 3130 c-129 -27 -207 -65 -282 -137 -78 -74 -112 -151 -113
-253 0 -104 23 -167 89 -238 68 -74 142 -117 333 -193 221 -89 278 -149 201
-213 -42 -36 -68 -41 -189 -40 -117 1 -186 16 -319 70 -47 19 -86 34 -88 34
-2 0 -3 -65 -3 -145 l0 -144 28 -15 c86 -44 300 -86 442 -86 314 0 507 129
539 360 33 245 -94 390 -473 540 -113 45 -176 88 -176 121 0 34 23 68 55 84
77 36 272 1 431 -77 49 -23 92 -44 97 -46 13 -6 8 285 -5 295 -19 14 -114 50
-183 69 -70 19 -317 28 -384 14z"/>
<path d="M15892 3129 c-269 -48 -476 -214 -557 -447 -36 -103 -46 -283 -21
-395 44 -196 167 -349 350 -436 208 -98 490 -107 753 -23 l88 28 3 152 3 152
-78 -29 c-253 -93 -448 -80 -575 38 -140 128 -153 392 -27 535 27 30 66 58
117 83 76 38 76 38 202 38 115 -1 132 -3 215 -33 50 -18 98 -35 108 -38 16 -6
17 5 17 148 l0 155 -72 22 c-40 11 -104 28 -143 37 -85 18 -310 27 -383 13z"/>
<path d="M17280 3129 c-78 -13 -211 -61 -277 -100 -32 -19 -89 -66 -129 -105
-247 -244 -247 -692 0 -939 39 -39 101 -88 137 -108 388 -217 924 -90 1094
258 53 107 69 182 69 320 0 244 -85 418 -267 545 -160 113 -410 164 -627 129z
m297 -275 c56 -34 106 -104 129 -177 8 -29 18 -106 21 -172 9 -193 -28 -334
-108 -414 -55 -55 -85 -66 -184 -66 -81 0 -95 3 -138 28 -56 33 -98 87 -128
166 -17 45 -23 84 -27 197 -6 173 11 262 64 347 57 91 131 128 246 124 65 -3
85 -8 125 -33z"/>
<path d="M13335 3108 c-3 -7 -4 -305 -3 -663 l3 -650 208 -3 207 -2 0 665 0
665 -205 0 c-155 0 -207 -3 -210 -12z"/>
<path d="M18577 1029 c-79 -19 -141 -72 -172 -146 -32 -77 -10 -199 48 -262
62 -67 199 -91 283 -50 120 58 174 209 117 324 -51 102 -171 160 -276 134z
m161 -67 c62 -45 86 -88 90 -161 3 -80 -20 -129 -86 -176 -38 -26 -52 -30
-111 -30 -56 0 -74 4 -108 27 -63 41 -88 90 -88 170 0 58 4 72 30 110 47 65
96 89 175 86 49 -3 74 -9 98 -26z"/>
<path d="M18550 811 l0 -131 25 0 c23 0 25 3 25 51 0 49 1 50 28 47 23 -3 29
-10 41 -50 12 -40 19 -48 38 -48 20 0 23 4 17 28 -3 15 -14 43 -23 63 -16 35
-16 37 1 48 22 14 24 69 4 96 -11 15 -30 20 -85 23 l-71 4 0 -131z m118 77
c26 -26 -1 -68 -44 -68 -21 0 -24 4 -24 40 0 37 2 40 28 40 15 0 33 -5 40 -12z"/>
<path d="M16287 858 c-8 -18 -86 -202 -174 -408 -89 -206 -168 -392 -177 -413
l-15 -38 65 3 66 3 53 125 53 125 190 3 189 2 58 -130 57 -130 65 0 c36 0 63
4 61 9 -1 5 -90 205 -197 445 l-194 436 -43 0 c-40 0 -45 -3 -57 -32z m184
-455 l9 -23 -134 0 -134 0 55 133 c30 72 59 143 65 157 8 22 15 12 70 -110 33
-74 64 -145 69 -157z"/>
<path d="M7972 443 l3 -438 165 -3 c91 -2 201 2 245 7 159 21 290 115 358 258
30 64 32 75 32 178 0 106 -1 113 -36 185 -41 86 -108 159 -180 196 -92 46
-147 54 -376 54 l-213 0 2 -437z m413 316 c107 -20 187 -76 233 -163 24 -45
27 -62 27 -146 0 -76 -4 -104 -21 -141 -31 -67 -87 -124 -152 -156 -54 -26
-66 -28 -214 -31 l-158 -4 0 326 0 326 113 0 c62 0 140 -5 172 -11z"/>
<path d="M9322 443 l3 -438 253 -3 252 -2 0 60 0 60 -190 0 -190 0 0 135 0
135 180 0 180 0 0 55 0 55 -180 0 -180 0 0 135 0 135 185 0 185 0 0 55 0 55
-250 0 -250 0 2 -437z"/>
<path d="M10350 440 l0 -440 65 0 65 0 2 215 3 216 222 -216 221 -215 82 0
c45 0 80 4 78 9 -1 4 -104 107 -228 227 -124 120 -225 224 -225 230 0 11 119
145 324 367 l44 47 -79 0 -79 0 -180 -197 -180 -196 -3 197 -2 196 -65 0 -65
0 0 -440z"/>
<path d="M11580 440 l0 -440 65 0 65 0 2 215 3 215 222 -215 221 -215 82 0
c45 0 80 4 78 9 -1 4 -104 106 -228 226 -124 120 -226 223 -227 229 -2 6 43
61 100 122 56 62 140 153 186 203 l83 91 -79 0 -79 0 -179 -196 -180 -197 -3
197 -2 196 -65 0 -65 0 0 -440z"/>
<path d="M12810 440 l0 -440 255 0 255 0 0 60 0 60 -190 0 -190 0 0 135 0 135
180 0 180 0 0 55 0 55 -180 0 -180 0 0 135 0 135 185 0 185 0 0 55 0 55 -250
0 -250 0 0 -440z"/>
<path d="M13840 441 l0 -441 65 0 65 0 0 190 0 190 51 0 c91 0 133 -40 274
-260 l77 -120 74 0 c58 0 73 3 67 13 -129 199 -216 323 -256 365 -35 36 -46
52 -34 52 31 0 104 81 117 130 32 121 -12 233 -115 285 -57 29 -63 30 -222 33
l-163 4 0 -441z m310 314 c47 -24 70 -62 70 -114 0 -95 -58 -141 -179 -141
l-71 0 0 135 0 135 75 0 c48 0 87 -6 105 -15z"/>
<path d="M15000 440 l0 -440 260 0 260 0 0 60 0 60 -195 0 -195 0 0 380 0 380
-65 0 -65 0 0 -440z"/>
<path d="M17260 439 l0 -442 198 6 c218 5 260 14 326 69 50 41 76 98 76 168 0
101 -63 185 -158 213 l-43 13 45 31 c58 41 79 83 80 158 0 72 -27 131 -78 170
-59 45 -113 55 -288 55 l-158 0 0 -441z m319 318 c47 -17 76 -59 76 -111 0
-95 -56 -136 -185 -136 l-80 0 0 130 0 130 78 -1 c42 0 92 -5 111 -12z m66
-381 c56 -24 85 -62 85 -113 0 -107 -56 -142 -227 -143 l-113 0 0 135 0 135
110 0 c74 0 122 -5 145 -14z"/>
</g>
</svg>
